<?xml version="1.0" standalone="no"?><!DOCTYPE svg PUBLIC "-//W3C//DTD SVG 1.1//EN" "http://www.w3.org/Graphics/SVG/1.1/DTD/svg11.dtd"><svg t="1590754044562" class="icon" viewBox="0 0 1024 1024" version="1.1" xmlns="http://www.w3.org/2000/svg" p-id="22530" width="128" height="128" xmlns:xlink="http://www.w3.org/1999/xlink"><defs><style type="text/css">@font-face { font-family: element-icons; src: url("chrome-extension://moombeodfomdpjnpocobemoiaemednkg/fonts/element-icons.woff") format("woff"), url("chrome-extension://moombeodfomdpjnpocobemoiaemednkg/fonts/element-icons.ttf ") format("truetype"); }
</style></defs><path d="M170.666667 853.333333V56.888889H56.888889v853.333333a56.888889 56.888889 0 0 0 56.888889 56.888889h853.333333v-113.777778H170.666667z" p-id="22531"></path><path d="M312.888889 739.555556h56.888889a28.444444 28.444444 0 0 0 28.444444-28.444445v-284.444444a28.444444 28.444444 0 0 0-28.444444-28.444445h-56.888889a28.444444 28.444444 0 0 0-28.444445 28.444445v284.444444a28.444444 28.444444 0 0 0 28.444445 28.444445zM483.555556 739.555556h56.888888a28.444444 28.444444 0 0 0 28.444445-28.444445v-512a28.444444 28.444444 0 0 0-28.444445-28.444444h-56.888888a28.444444 28.444444 0 0 0-28.444445 28.444444v512a28.444444 28.444444 0 0 0 28.444445 28.444445zM654.222222 739.555556h56.888889a28.444444 28.444444 0 0 0 28.444445-28.444445v-170.666667a28.444444 28.444444 0 0 0-28.444445-28.444444h-56.888889a28.444444 28.444444 0 0 0-28.444444 28.444444v170.666667a28.444444 28.444444 0 0 0 28.444444 28.444445zM824.888889 739.555556h56.888889a28.444444 28.444444 0 0 0 28.444444-28.444445v-398.222222a28.444444 28.444444 0 0 0-28.444444-28.444445h-56.888889a28.444444 28.444444 0 0 0-28.444445 28.444445v398.222222a28.444444 28.444444 0 0 0 28.444445 28.444445z" fill="#2878ff" p-id="22532"></path></svg>